<svg width="240" height="80" viewBox="0 0 240 80" fill="none" xmlns="http://www.w3.org/2000/svg">
<g clip-path="url(#clip0_4_118)">
<path d="M120.368 54.72C122.888 54.72 124.76 53.208 124.76 50.58C124.76 47.988 122.888 46.44 120.368 46.44C117.848 46.44 115.94 47.988 115.94 50.58C115.94 53.208 117.848 54.72 120.368 54.72ZM120.368 44.028C124.868 44.028 128.36 46.62 128.36 50.58C128.36 54.792 124.868 57.528 120.368 57.528C115.868 57.528 112.376 54.792 112.376 50.58C112.376 46.62 115.868 44.028 120.368 44.028ZM130.628 34.812L131.78 34.092C132.824 34.056 134.336 34.128 134.984 34.272C135.38 34.344 135.632 34.632 135.668 34.992C135.704 35.712 135.488 36.36 135.236 36.612C135.02 36.828 134.624 36.9 134.3 36.9L128.432 37.044V37.188C128.432 39.384 127.964 42.552 127.316 44.28H125.264C125.084 43.272 124.976 40.968 124.94 39.312C120.224 40.824 114.176 41.904 110.036 42.264C109.568 42.3 109.1 42.336 108.704 42.336C107.228 42.336 106.22 41.472 105.788 40.14C105.68 39.78 105.608 39.096 105.608 38.34V30.384C105.032 29.88 104.06 29.412 103.16 29.124L103.376 28.116C103.412 27.972 103.556 27.864 103.844 27.864C105.176 27.864 107.552 28.008 108.596 28.26C108.992 28.332 109.172 28.62 109.172 29.052L109.136 30.888V38.772C109.136 39.204 109.316 39.42 109.82 39.42C113.852 39.384 120.368 38.592 124.94 37.404V26.496C124.364 25.704 123.248 24.984 122.024 24.516L122.384 23.4C122.456 23.256 122.564 23.184 122.888 23.184C124.4 23.256 126.92 23.76 128.072 24.264C128.396 24.408 128.54 24.696 128.54 25.128L128.432 27.144V34.92L130.628 34.812Z" fill="#445C17"/>
<path d="M166.628 38.712L167.78 37.992C168.824 37.956 170.336 38.028 170.984 38.172C171.38 38.28 171.632 38.568 171.668 38.892C171.704 39.648 171.488 40.296 171.236 40.548C171.02 40.728 170.624 40.836 170.3 40.836L164.432 40.98V43.824C164.432 46.488 164 49.836 163.28 51.816H161.264C161.048 50.448 160.94 46.632 160.94 44.904V29.496C160.364 28.704 159.248 27.984 158.024 27.516L158.384 26.4C158.456 26.256 158.564 26.184 158.888 26.184C160.4 26.256 162.92 26.76 164.072 27.264C164.396 27.408 164.54 27.696 164.54 28.128L164.432 30.144V38.82L166.628 38.712ZM161.552 57.576L162.884 56.856C164.036 56.82 165.728 56.964 166.52 57.144C166.88 57.216 167.096 57.432 167.096 57.756C167.096 58.62 166.808 59.232 166.592 59.448C166.448 59.592 166.232 59.664 166.016 59.664L151.004 59.772H150.968C148.412 59.736 147.476 58.8 147.476 56.676V51.96C146.9 51.492 145.928 51.024 144.956 50.772L145.172 49.8C145.208 49.62 145.388 49.512 145.64 49.512C147.008 49.512 149.456 49.692 150.5 49.908C150.896 50.016 151.076 50.268 151.076 50.736L151.04 52.5V56.748C151.04 57.396 151.292 57.684 151.904 57.684C154.064 57.72 159.536 57.648 161.552 57.576ZM155.648 44.832L144.2 44.94C144.092 45.588 143.876 46.092 143.552 46.56H141.608C141.392 45.912 141.248 44.94 141.176 44.148L140.384 33.492C139.988 33.024 139.232 32.556 138.476 32.304L138.728 31.296C138.764 31.188 138.872 31.116 139.124 31.116C140.42 31.116 142.832 31.296 144.092 31.512C146.108 31.548 150.392 31.476 152.336 31.368L153.74 30.612C153.92 30.54 154.208 30.54 154.424 30.612C154.928 30.864 155.972 31.368 156.404 31.692C156.548 31.8 156.584 31.944 156.476 32.196L156.008 33.636C155.9 36.408 155.54 39.792 155.144 42.528L155.828 42.852C156.008 42.924 156.116 43.104 156.116 43.32C156.116 44.004 155.9 44.58 155.648 44.832ZM152.228 42.528L152.336 33.528C149.744 33.528 146.648 33.564 144.092 33.636L144.272 42.816C146.432 42.816 149.852 42.78 151.58 42.708L152.228 42.528Z" fill="#445C17"/>
<path d="M199.088 37.384L200.24 36.872C201.392 36.936 203.088 37.128 203.824 37.352C204.048 37.448 204.24 37.64 204.24 37.896C204.24 38.44 203.856 38.92 203.568 39.08C202.704 38.984 200.816 38.92 199.856 38.92C197.616 38.888 182.96 39.08 181.264 39.176C180.464 39.24 178.832 39.528 178.064 39.784C176.912 39.432 175.728 38.76 174.928 38.12C174.832 38.024 174.8 37.928 174.832 37.832L175.056 37.384C176.112 37.576 177.616 37.704 178.608 37.704C179.568 37.704 183.952 37.672 188.432 37.608V33.192L184.24 33.256C182.288 33.256 181.424 32.36 181.424 30.664V25.416C180.944 25 180.144 24.68 179.312 24.488L179.472 23.784C179.504 23.656 179.6 23.592 179.792 23.592C180.816 23.592 182.608 23.688 183.376 23.88C183.696 23.944 183.856 24.136 183.856 24.488L183.792 25.928V30.984C183.792 31.624 183.984 31.848 184.624 31.88C186.96 31.912 193.264 31.816 195.248 31.688L196.208 31.112C197.168 31.112 198.576 31.24 199.184 31.368C199.44 31.432 199.6 31.592 199.6 31.816C199.6 32.392 199.44 32.776 199.28 32.904C199.184 33.032 199.024 33.064 198.864 33.064L190.672 33.16V37.576C194.576 37.512 198.128 37.448 199.088 37.384ZM189.456 41.384C193.616 41.384 196.624 43.592 196.624 46.856C196.624 50.184 193.616 52.488 189.456 52.488C185.296 52.488 182.288 50.184 182.288 46.856C182.288 43.592 185.296 41.384 189.456 41.384ZM189.456 50.824C192.24 50.824 194.256 49.352 194.256 46.856C194.256 44.36 192.24 42.824 189.456 42.824C186.672 42.824 184.688 44.36 184.688 46.856C184.688 49.352 186.672 50.824 189.456 50.824Z" fill="#B7890F"/>
<path d="M232.432 39.168L233.456 38.56C234.384 38.528 235.696 38.592 236.272 38.72C236.528 38.816 236.72 39.008 236.72 39.264C236.752 39.84 236.56 40.256 236.336 40.416C236.208 40.512 235.952 40.576 235.728 40.576L230.16 40.672V42.336C230.16 44.384 229.872 46.816 229.424 48.288H228.08C227.952 47.072 227.888 44.48 227.888 43.104V31.264C227.344 30.592 226.32 30.016 225.2 29.632L225.456 28.864C225.488 28.768 225.552 28.704 225.808 28.704C226.96 28.736 228.944 29.152 229.872 29.536C230.16 29.632 230.256 29.856 230.256 30.176L230.16 31.84V39.264L232.432 39.168ZM223.184 47.872C227.12 47.872 230.032 50.176 230.032 53.504C230.032 56.96 227.12 59.392 223.184 59.392C219.248 59.392 216.336 56.96 216.336 53.504C216.336 50.176 219.248 47.872 223.184 47.872ZM223.184 57.568C225.712 57.568 227.632 56 227.632 53.504C227.632 51.008 225.712 49.44 223.184 49.44C220.656 49.44 218.768 51.008 218.768 53.504C218.768 56 220.656 57.568 223.184 57.568ZM223.312 45.184L217.584 40.416C214.928 43.2 211.504 45.792 207.856 47.68C207.728 47.744 207.632 47.744 207.568 47.712L207.184 47.36C207.12 47.264 207.088 47.2 207.184 47.072C212.784 43.36 217.136 38.432 219.312 33.952C217.584 33.952 213.616 34.048 212.784 34.112C212.208 34.144 211.088 34.368 210.512 34.624C209.68 34.304 208.752 33.728 208.112 33.184C208.016 33.088 207.984 32.992 208.048 32.896L208.24 32.544C209.04 32.672 210.16 32.768 210.928 32.768C212.112 32.768 218.16 32.672 219.632 32.576L220.688 32.096C220.848 32 221.04 32 221.2 32.096C221.616 32.224 222.384 32.576 222.672 32.768C222.832 32.832 222.832 33.024 222.736 33.184L222.096 34.08C221.296 35.808 220.08 37.6 218.608 39.296L222.064 41.984L223.472 42.336C223.952 42.88 224.56 43.744 224.816 44.224C225.04 44.608 225.072 44.832 225.008 45.024C224.912 45.408 224.368 45.664 224.016 45.6C223.824 45.568 223.536 45.376 223.312 45.184Z" fill="#B7890F"/>
<path d="M62.8233 32.122C69.8367 58.0073 43.9006 80.2604 19.3666 69.8298C6.84453 64.6196 -1.30845 51.1102 0.0287811 37.5819C0.824096 27.8658 6.34957 19.0336 14.3887 13.9627C17.335 12.0961 20.5935 10.7783 24.0081 10.0726C20.7493 11.119 17.6882 12.7034 14.9508 14.7607C6.37439 21.1894 1.42207 31.8718 2.89055 42.964C5.18631 61.0719 23.4182 72.947 40.7951 67.4244C55.3212 62.9607 64.0467 47.5027 60.6538 32.6656C60.4731 31.8264 60.2306 30.9461 59.9787 30.1216C58.9173 26.74 57.2791 23.5679 55.1371 20.7465C54.0401 19.3405 52.8394 18.0193 51.545 16.7938C48.88 14.3526 45.8321 12.3689 42.5243 10.9228C44.263 11.4784 45.9528 12.1783 47.5761 13.0154C50.841 14.7591 53.7702 17.0733 56.2256 19.849C57.4445 21.2627 58.547 22.7732 59.5222 24.3657C60.2339 25.5795 60.8695 26.8366 61.4252 28.1296L61.9467 29.4322C62.2702 30.3053 62.5775 31.2293 62.8233 32.122Z" fill="#5D7C22"/>
<path d="M59.7559 40.296C59.7296 40.8676 59.684 41.4392 59.6192 42.0107C52.1772 43.1659 45.0411 45.8046 38.6315 49.7713C32.2219 53.7381 26.6687 58.9525 22.2992 65.1071C19.7557 64.1515 17.3674 62.8228 15.2122 61.1643C20.3527 54.6558 26.892 49.3967 34.3417 45.7796C41.7915 42.1626 49.9592 40.2811 58.2351 40.2757C58.7371 40.2735 59.244 40.2803 59.7559 40.296Z" fill="#9EA623"/>
<path d="M59.3779 43.6677C59.1893 44.7757 58.9315 45.8707 58.6057 46.9461C48.6764 51.0756 40.1208 57.9515 33.9357 66.7727C33.6645 66.7909 33.3922 66.807 33.1177 66.8166C32.6905 66.8348 32.2633 66.8466 31.8361 66.8466C29.1368 66.8454 26.4527 66.4405 23.8723 65.6452C32.4022 53.8382 45.0575 45.9923 59.3779 43.6677Z" fill="#808D3F"/>
<path d="M57.9052 48.993C54.3318 58.2097 46.0401 65.0901 36.0728 66.5465C41.7242 58.908 49.244 52.8619 57.9052 48.993Z" fill="#5D7C22"/>
<path d="M30.1517 46.183C28.3124 47.2402 26.5339 48.4005 24.8247 49.6586C18.5867 45.8032 11.6509 43.2231 4.41591 42.0666C4.34649 41.475 4.30163 40.8813 4.27173 40.2854C4.64836 40.2761 5.02536 40.2715 5.40271 40.2715C13.9995 40.2727 22.4763 42.2974 30.1517 46.183Z" fill="#9EA623"/>
<path d="M17.4805 56.1178C16.2531 57.4038 15.0833 58.7488 13.9712 60.1527C12.9544 59.2782 12.0024 58.3304 11.1229 57.317C9.03238 54.9129 7.36594 52.1686 6.19531 49.202C10.2223 51.04 14.0118 53.3623 17.4805 56.1178Z" fill="#5D7C22"/>
<path d="M23.4536 50.7034C21.7586 52.0303 20.1415 53.4545 18.6104 54.9688C14.6067 51.7664 10.1853 49.1288 5.46906 47.1292C5.12604 46.0153 4.85423 44.8806 4.65527 43.7319C11.3003 44.8571 17.6764 47.2217 23.4536 50.7034Z" fill="#808D3F"/>
<path d="M44.5096 38.1239C44.692 38.8058 44.8163 39.5021 44.8813 40.2051C44.3558 40.338 43.8329 40.4809 43.3124 40.6338C39.5298 41.7158 35.8706 43.1925 32.3946 45.0396C28.9088 43.1842 25.2374 41.7034 21.4416 40.622C20.9204 40.4734 20.3971 40.3323 19.8716 40.1987C19.938 39.4935 20.0648 38.7954 20.2508 38.1121C20.7101 36.4038 21.5271 34.8134 22.6473 33.447L19.2234 29.3745L23.5882 32.4138C24.485 31.528 25.5083 30.781 26.6244 30.1975L22.1539 18.173L27.9999 29.5802C29.1617 29.1404 30.383 28.8791 31.6225 28.8054L32.3765 16.0071L33.1304 28.8054C34.3669 28.8783 35.5856 29.1355 36.7466 29.5684L44.2811 14.3588L38.1445 30.1922C39.2416 30.7625 40.2491 31.4916 41.1348 32.356L52.7329 22.7963L42.1601 33.4866C42.9387 34.4518 43.57 35.5277 44.0333 36.6792L57.81 32.8672L44.5096 38.1239Z" fill="#FFB900"/>
<path d="M20.1662 36.9053C19.9797 37.3691 19.821 37.8437 19.691 38.3264L9.53247 34.1339L20.1662 36.9053Z" fill="#FFB900"/>
<path d="M24.9402 34.1691C27.0657 32.7056 29.5999 31.9583 32.1765 32.0354C34.7531 32.1124 37.2385 33.0098 39.2734 34.5978C40.7072 35.7202 41.8495 37.1736 42.6033 38.8343C42.033 36.7434 40.7044 34.8164 38.9316 33.4221C36.9912 31.907 34.6208 31.0507 32.1633 30.9771C29.7057 30.9035 27.2886 31.6164 25.2617 33.0127C23.2795 34.3899 21.7662 36.4015 21.1318 38.6285C21.1425 38.6146 21.1532 38.6028 21.1628 38.5888C22.016 36.8101 23.3183 35.2863 24.9402 34.1691Z" fill="white"/>
</g>
<defs>
<clipPath id="clip0_4_118">
<rect width="240" height="80" fill="white"/>
</clipPath>
</defs>
</svg>
