<svg width="76" height="120" viewBox="0 0 76 120" fill="none" xmlns="http://www.w3.org/2000/svg">
<g clip-path="url(#clip0_102_3293)">
<g style="mix-blend-mode:multiply" opacity="0.38">
<path d="M39.0351 120C59.1596 120 75.4738 118.954 75.4738 117.665C75.4738 116.375 59.1596 115.33 39.0351 115.33C18.9105 115.33 2.59637 116.375 2.59637 117.665C2.59637 118.954 18.9105 120 39.0351 120Z" fill="#969635"/>
</g>
<path d="M9.28128 10.7436C9.28128 10.7436 14.8172 10.96 24.1955 9.09474C33.5663 7.237 37.2892 4.35712 37.2892 4.35712L19.3534 7.28176L9.28128 10.7361V10.7436Z" fill="#C68E1E"/>
<path d="M37.0878 103.258V108.428L46.8167 108.063V103.258H37.0878Z" fill="#EA8073"/>
<path d="M13.1609 102.676V107.846L22.1661 107.481V102.676H13.1609Z" fill="#EA8073"/>
<path d="M24.4044 116.389C24.4044 117.299 24.0985 118.344 23.4718 118.605C22.8451 118.866 17.7642 119.418 13.3176 119.03C9.06491 118.657 8.17707 118.344 7.86372 117.956C7.70704 117.762 8.01293 116.844 8.35613 115.964C8.37851 115.919 8.39344 115.867 8.41582 115.822C8.58742 115.374 8.77394 114.949 8.90823 114.643C9.04253 114.352 9.19921 114.076 9.39319 113.807C9.85576 113.173 10.766 111.86 10.9973 111.181C11.3032 110.279 11.7732 108.324 12.0865 107.399C12.3999 106.496 13.1684 106.302 13.1684 106.302C13.1684 106.302 21.9199 105.705 22.5466 106.227C23.1659 106.742 23.4792 111.054 23.4792 111.704V112.353C23.4792 112.957 23.897 114.158 24.1656 115.15C24.2402 115.397 24.2999 115.635 24.3372 115.844C24.382 116.053 24.4118 116.24 24.4118 116.389H24.4044Z" fill="#D84427"/>
<path d="M63.2081 118.254C62.6262 118.493 37.7891 119.172 37.2146 118.254C37.043 117.978 36.9162 117.038 36.8341 115.852C36.6327 113.061 36.6327 108.921 36.6327 108.921C36.6327 108.921 36.4536 107.503 36.4835 106.847C36.5133 106.197 48.4581 106.444 48.4581 106.444L56.2248 112.569C56.2248 112.569 58.3586 112.189 60.6864 112.569C61.9174 112.763 62.7157 114.278 63.1112 115.703C63.4618 116.963 63.4917 118.142 63.2156 118.254H63.2081Z" fill="#D84427"/>
<path d="M35.3345 46.8839C35.3345 46.8839 42.4074 56.956 46.7869 74.4666C51.1664 91.9846 50.8754 104.877 50.8754 104.877H34.3198C34.3198 104.877 33.8871 94.1706 32.0667 85.4116C30.2462 76.6526 27.7394 67.4086 27.7394 67.4086L25.8145 104.877H9.28128C9.28128 104.877 11.4076 55.8294 14.4069 48.4357C16.8689 42.3552 35.3345 46.8839 35.3345 46.8839Z" fill="#F9BF30"/>
<path d="M53.9493 24.4417C53.9493 24.4417 57.3365 20.2263 58.6869 20.771C60.0373 21.3156 57.0977 24.7178 57.0977 24.7178L61.2833 25.0983C61.2833 25.0983 65.8493 25.9488 66.476 26.6874C67.1027 27.426 65.148 28.0826 65.148 28.0826C65.148 28.0826 68.4233 28.6272 67.3414 29.821C66.2596 31.0147 63.9095 30.858 63.9095 30.858C63.9095 30.858 67.1922 31.2385 65.7598 32.5591C64.9838 33.2753 57.0157 33.9841 52.942 31.8205C48.8684 29.6568 52.0691 25.822 52.0691 25.822L53.9567 24.4343L53.9493 24.4417Z" fill="#EA8073"/>
<path d="M26.6426 16.9883C26.6426 16.9883 33.3574 17.4733 37.2445 20.8829C41.139 24.2925 43.8846 28.2766 44.7351 28.8287C45.5857 29.3882 53.054 24.8446 53.054 24.8446C53.054 24.8446 56.8217 35.2301 56.7023 35.715C56.5829 36.2 48.3089 42.0866 42.2208 42.7207C36.9983 43.2579 31.4026 37.3042 31.4026 37.3042L26.6352 16.9883H26.6426Z" fill="#507849"/>
<path d="M17.7866 49.4579C17.7866 49.4579 32.0592 49.9951 33.5364 47.712C35.9239 44.0264 32.0592 33.723 32.0592 33.723L26.6426 16.9883L21.1888 17.6747L17.8463 33.2753L17.7866 49.4579Z" fill="#507849"/>
<path d="M21.1739 15.4887L21.2037 18.6223C21.2037 18.6223 22.3974 19.6071 23.912 19.6071C25.9563 19.6071 26.6501 18.0254 26.6501 18.0254L26.5755 14.3547L21.1813 15.4813L21.1739 15.4887Z" fill="#EA8073"/>
<path d="M21.1738 15.4887C21.1738 15.4887 22.4123 18.0254 24.7177 17.6374C26.5829 17.3241 26.5606 14.6979 26.5606 14.6979L21.1664 15.4887H21.1738Z" fill="black"/>
<path d="M27.3514 6.4611C27.3514 6.4611 28.5302 12.0493 26.7471 14.7575C24.9714 17.4733 22.5914 16.7272 21.517 15.9214C20.0696 14.8471 19.7488 13.3251 19.7488 13.3251C19.7488 13.3251 17.7866 13.7503 17.1002 12.1537C16.384 10.4825 17.5852 9.09478 18.57 8.99779C19.5548 8.9008 19.6742 9.07985 19.6742 9.07985L19.3534 7.2818C19.3534 7.2818 25.2251 0.529743 27.3514 6.45364V6.4611Z" fill="#EA8073"/>
<path d="M26.4487 9.10225C26.4487 9.10225 29.4106 7.78168 29.6792 10.0871C29.9925 12.7581 26.7919 12.8401 26.7919 12.8401L26.4412 9.10971L26.4487 9.10225Z" fill="#EA8073"/>
<path d="M19.1967 9.27379C19.1967 9.27379 20.2412 9.6916 22.4123 8.05022C24.5834 6.40883 23.912 4.52124 23.912 4.52124C23.912 4.52124 26.9485 6.34915 27.6573 8.69185C28.3735 11.0345 28.5302 3.14845 25.1281 3.35736C21.7185 3.56626 16.66 5.87166 19.1967 9.27379Z" fill="black"/>
<path d="M27.9706 11.4897C27.9706 11.4897 27.911 11.4897 27.8811 11.4673C27.7916 11.4151 27.7617 11.3106 27.814 11.2211L28.7839 9.49763C28.8361 9.4081 28.948 9.37826 29.0301 9.43048C29.1196 9.48271 29.1495 9.58716 29.0972 9.67669L28.1273 11.4001C28.0975 11.4598 28.0303 11.4897 27.9706 11.4897Z" fill="black"/>
<path d="M19.3907 11.6911C19.3459 11.6911 19.3086 11.6762 19.2713 11.6464L17.7344 10.3706C17.6598 10.3034 17.6449 10.1915 17.712 10.1169C17.7792 10.0423 17.8911 10.0274 17.9657 10.0945L19.5026 11.3703C19.5772 11.4375 19.5921 11.5494 19.525 11.624C19.4877 11.6688 19.4355 11.6911 19.3832 11.6911H19.3907Z" fill="black"/>
<path d="M17.9881 11.9598C17.9358 11.9598 17.8836 11.9374 17.8463 11.8926C17.7866 11.8105 17.8015 11.6986 17.8762 11.6389L18.764 10.9525C18.8461 10.8929 18.958 10.9078 19.0177 10.9824C19.0773 11.0645 19.0624 11.1764 18.9878 11.2361L18.1 11.9224C18.1 11.9224 18.0254 11.9598 17.9881 11.9598Z" fill="black"/>
<path d="M29.1196 10.96H28.2691C28.1646 10.96 28.09 10.8779 28.09 10.7809C28.09 10.6839 28.1721 10.6019 28.2691 10.6019H29.1196C29.2241 10.6019 29.2987 10.6839 29.2987 10.7809C29.2987 10.8779 29.2166 10.96 29.1196 10.96Z" fill="black"/>
<path d="M22.1288 10.2437C22.0393 10.2437 21.9572 10.1766 21.9498 10.0796L21.8453 9.11716C21.8379 9.02017 21.905 8.93064 22.0095 8.91572C22.1064 8.9008 22.2034 8.97541 22.2109 9.07986L22.3154 10.0423C22.3228 10.1393 22.2557 10.2288 22.1512 10.2437C22.1512 10.2437 22.1363 10.2437 22.1288 10.2437Z" fill="black"/>
<path d="M25.807 9.8632C25.7175 9.8632 25.6354 9.79605 25.628 9.69906L25.5235 8.73661C25.5161 8.63962 25.5832 8.55009 25.6877 8.53517C25.7921 8.52771 25.8742 8.59486 25.8891 8.69931L25.9935 9.66176C26.001 9.75875 25.9339 9.84828 25.8294 9.8632C25.8294 9.8632 25.8145 9.8632 25.807 9.8632Z" fill="black"/>
<path d="M24.5163 12.4671C24.3895 12.4521 24.3223 12.3552 24.3372 12.2582C24.5461 10.8257 24.0313 9.67672 24.0239 9.6618C23.9791 9.57227 24.0239 9.46036 24.1134 9.42305C24.2029 9.38575 24.3149 9.42305 24.3522 9.51258C24.3745 9.56481 24.9192 10.7735 24.6879 12.3104C24.673 12.3999 24.5984 12.4671 24.5088 12.4671H24.5163Z" fill="black"/>
<path d="M23.8299 14.0637C23.2106 14.0637 22.8003 13.3474 22.7854 13.3176C22.7555 13.2579 22.7555 13.1908 22.7854 13.1311C22.8227 13.0714 22.8824 13.049 22.9495 13.049L24.8819 13.1908C24.949 13.1908 25.0162 13.243 25.0386 13.3101C25.0609 13.3773 25.046 13.4519 25.0012 13.5041C24.9789 13.5265 24.4939 14.0189 23.8821 14.0637C23.8597 14.0637 23.8448 14.0637 23.8224 14.0637H23.8299ZM23.3375 13.4444C23.4792 13.5862 23.6732 13.713 23.8672 13.6981C24.0612 13.6832 24.2402 13.6086 24.3895 13.519L23.3375 13.4444Z" fill="black"/>
<path d="M26.1801 7.81898C26.1428 7.81898 26.098 7.80406 26.0682 7.78168C25.7996 7.56531 25.3221 7.54293 25.1579 7.55785C25.061 7.55785 24.9714 7.49071 24.964 7.38625C24.964 7.28926 25.0311 7.19973 25.1356 7.19227C25.1654 7.19227 25.8593 7.15497 26.292 7.49071C26.3741 7.55039 26.3815 7.66977 26.3218 7.74437C26.2845 7.78914 26.2323 7.81152 26.1801 7.81152V7.81898Z" fill="black"/>
<path d="M21.7931 8.23679C21.7409 8.23679 21.6886 8.2144 21.6513 8.16964C21.5917 8.08757 21.5991 7.97566 21.6812 7.91597C22.1139 7.57277 22.8078 7.61008 22.8376 7.61008C22.9346 7.61008 23.0167 7.69961 23.0092 7.80406C23.0092 7.90105 22.9122 7.97566 22.8152 7.97566C22.8152 7.97566 22.2333 7.94581 21.905 8.19948C21.8752 8.22933 21.8304 8.23679 21.7931 8.23679Z" fill="black"/>
<path d="M44.8172 33.7976C44.8172 33.7976 44.7575 33.7976 44.7202 33.7976C44.4591 33.7677 44.2502 33.6409 44.1084 33.4096C43.4071 32.3129 44.4516 29.1345 44.571 28.7764C44.5934 28.7018 44.668 28.6496 44.7426 28.6496C44.8023 28.6571 44.8918 28.7018 44.9142 28.7764C45.041 29.1719 46.1005 32.6337 45.3469 33.5514C45.2126 33.7155 45.0336 33.7976 44.8172 33.7976ZM44.7351 29.4628C44.3994 30.6193 43.9816 32.5367 44.4143 33.2082C44.4964 33.3425 44.6083 33.4096 44.7575 33.432C44.8918 33.4469 44.9888 33.4171 45.056 33.3201C45.5036 32.768 45.0709 30.7013 44.7277 29.4628H44.7351Z" fill="white"/>
<path d="M61.9771 30.7908C61.91 30.7908 61.8428 30.7535 61.813 30.6789L60.1641 26.8664C60.1268 26.7769 60.1641 26.665 60.2611 26.6277C60.3507 26.5904 60.4626 26.6277 60.4999 26.7247L62.1487 30.5372C62.186 30.6267 62.1487 30.7386 62.0517 30.7759C62.0293 30.7834 62.007 30.7908 61.9771 30.7908Z" fill="black"/>
<path d="M54.9266 29.045C54.6581 29.045 54.4715 29.0077 54.4491 29.0077C54.3522 28.9853 54.285 28.8958 54.3074 28.7914C54.3298 28.6944 54.4268 28.6347 54.5238 28.6496C54.5312 28.6496 55.6876 28.866 56.4188 28.1273C57.053 27.4932 57.2171 26.3591 56.9187 24.7476C56.9038 24.6506 56.9634 24.5536 57.0604 24.5312C57.1574 24.5088 57.2544 24.576 57.2768 24.6804C57.6051 26.4188 57.4036 27.6648 56.6725 28.3885C56.1204 28.9406 55.3967 29.045 54.9266 29.045Z" fill="black"/>
<path d="M9.28128 10.7436C9.28128 10.7436 38.0353 4.40936 37.2892 4.3646C36.5432 4.31237 28.478 4.50635 28.478 4.50635C28.4705 4.49889 25.9562 0.0820795 25.2176 1.03258e-05C24.479 -0.0820588 18.2567 1.61155 17.6822 2.38748C17.1077 3.1634 17.3912 6.7073 17.3912 6.7073L9.28128 10.7436Z" fill="#FFA63B"/>
<path d="M12.7282 105.056C12.6163 105.056 12.5417 104.966 12.5491 104.862L15.2947 49.4206C15.2947 49.3236 15.3768 49.2564 15.4887 49.249C15.5857 49.249 15.6678 49.3385 15.6603 49.4429L12.9147 104.884C12.9147 104.981 12.8326 105.056 12.7356 105.056H12.7282Z" fill="#507849"/>
<path d="M21.1962 17.6747C21.1962 17.6747 13.3773 17.6225 6.56554 24.7177C-0.246201 31.813 -2.96194 43.3026 4.33475 46.7048C11.6314 50.1144 20.0249 49.5101 20.0249 49.5101L21.1738 38.1323L18.8759 37.4534C18.8759 37.4534 20.2636 25.2847 21.1962 17.6747Z" fill="#507849"/>
<path d="M36.3342 48.3686C36.3342 48.3686 35.9463 35.148 34.3198 27.2843C32.6859 19.4206 30.567 17.6747 30.567 17.6747L27.4633 16.9883C27.4633 16.9883 29.1271 21.7484 29.709 25.0983C30.3134 28.5526 30.0895 30.1045 30.0895 30.1045L20.1144 29.5598V17.7493C20.1144 17.7493 18.5551 17.9657 17.8538 18.1448C17.1524 18.3238 16.4735 18.5178 16.4735 18.5178C16.4735 18.5178 17.5255 36.6103 12.094 37.0953C6.66252 37.5802 14.1234 49.3012 14.1234 49.3012L27.4633 52.7481L36.3417 48.3686H36.3342Z" fill="#F9BF30"/>
<path d="M11.4151 35.8642C11.3628 35.8642 11.3106 35.8418 11.2733 35.7971C11.2062 35.7224 11.2211 35.6031 11.2957 35.5434C11.8702 35.0659 13.2504 31.2012 14.0487 28.7242C14.0786 28.6272 14.183 28.575 14.28 28.6048C14.377 28.6347 14.4293 28.7391 14.3994 28.8361C14.198 29.4777 12.3701 35.1256 11.5344 35.8269C11.4971 35.8567 11.4598 35.8717 11.4151 35.8717V35.8642Z" fill="white"/>
<path d="M21.7931 34.2079C21.7931 34.2079 23.1062 28.0453 25.5608 28.3138C28.0154 28.5824 28.9256 26.8814 29.3584 25.7772C29.7911 24.673 31.619 21.9348 32.7456 24.5387C33.8722 27.135 32.0592 28.0229 32.6635 29.5225C33.2604 31.0221 32.3352 34.7973 30.2313 34.2004C28.1273 33.611 21.7931 34.2004 21.7931 34.2004V34.2079Z" fill="#A09D3F"/>
<path d="M19.3907 32.9769C19.3907 32.9769 15.6901 30.0373 16.8839 26.7918C18.0776 23.5464 23.054 27.2917 22.0244 32.2308C20.9948 37.1699 19.3907 32.9843 19.3907 32.9843V32.9769Z" fill="#B2AD4F"/>
<path d="M28.6944 30.8207C28.6944 32.4322 27.3887 33.7379 25.7772 33.7379C24.1656 33.7379 22.86 32.4322 22.86 30.8207C22.86 29.2091 24.1656 27.9035 25.7772 27.9035C27.3887 27.9035 28.6944 29.2091 28.6944 30.8207Z" fill="#BA3725"/>
<path d="M22.7406 36.2522C22.7406 36.2522 22.4123 31.5369 26.4561 30.9028C30.4999 30.2686 31.4549 30.7908 32.947 29.3434C34.4392 27.896 37.3489 25.4116 38.8709 26.9187C40.3929 28.4183 40.7361 31.7757 34.9167 33.3574C29.1047 34.9391 22.7332 36.2522 22.7332 36.2522H22.7406Z" fill="#A09D3F"/>
<path d="M26.5979 30.9475C26.5979 30.9475 28.2542 26.5232 31.7085 26.6575C35.1703 26.7918 33.1335 32.6784 28.1199 33.2231C23.1062 33.7677 26.5904 30.9475 26.5904 30.9475H26.5979Z" fill="#B2AD4F"/>
<path d="M15.2574 34.2079C15.2574 34.2079 8.99776 34.9988 7.53544 34.2975C6.07312 33.5961 7.29669 32.6188 9.28127 32.6188C11.2659 32.6188 10.1318 29.709 12.0791 29.8657C14.0264 30.0224 14.6755 31.44 15.9736 31.2161C17.2718 30.9998 16.2198 29.0823 19.3907 30.6118C22.5616 32.1413 21.7931 34.2079 21.7931 34.2079H15.2574Z" fill="#B2AD4F"/>
<path d="M22.3079 32.9769C22.3079 34.5884 21.0022 35.8941 19.3907 35.8941C17.7792 35.8941 16.4735 34.5884 16.4735 32.9769C16.4735 31.3653 17.7792 30.0597 19.3907 30.0597C21.0022 30.0597 22.3079 31.3653 22.3079 32.9769Z" fill="#BA3725"/>
<path d="M27.4932 32.9769C27.4932 34.5884 26.1875 35.8941 24.576 35.8941C22.9645 35.8941 21.6588 34.5884 21.6588 32.9769C21.6588 31.3653 22.9645 30.0597 24.576 30.0597C26.1875 30.0597 27.4932 31.3653 27.4932 32.9769Z" fill="#D84427"/>
<path d="M37.1997 33.2753H14.4143C13.5325 33.2753 12.8177 33.9902 12.8177 34.8719V46.8391C12.8177 47.7209 13.5325 48.4357 14.4143 48.4357H37.1997C38.0815 48.4357 38.7963 47.7209 38.7963 46.8391V34.8719C38.7963 33.9902 38.0815 33.2753 37.1997 33.2753Z" fill="#8C433B"/>
<path d="M35.0286 33.2753H12.2432C11.3614 33.2753 10.6466 33.9902 10.6466 34.8719V46.8391C10.6466 47.7209 11.3614 48.4357 12.2432 48.4357H35.0286C35.9104 48.4357 36.6252 47.7209 36.6252 46.8391V34.8719C36.6252 33.9902 35.9104 33.2753 35.0286 33.2753Z" fill="#B75A4E"/>
<path d="M36.767 38.6397H24.8297C24.7252 38.6397 24.6506 38.5576 24.6506 38.4606C24.6506 38.3636 24.7327 38.2816 24.8297 38.2816H36.767C36.8714 38.2816 36.9461 38.3636 36.9461 38.4606C36.9461 38.5576 36.864 38.6397 36.767 38.6397Z" fill="#8C433B"/>
<path d="M36.767 43.5862H24.8297C24.7252 43.5862 24.6506 43.5041 24.6506 43.4071C24.6506 43.3102 24.7327 43.2281 24.8297 43.2281H36.767C36.8714 43.2281 36.9461 43.3102 36.9461 43.4071C36.9461 43.5041 36.864 43.5862 36.767 43.5862Z" fill="#8C433B"/>
<path d="M19.801 48.1298C19.801 48.1298 21.4797 50.3755 25.0162 50.3233C28.5526 50.2711 29.1868 49.0401 29.2987 48.4432C29.4106 47.8389 29.3434 47.5927 29.3434 47.5927C29.3434 47.5927 29.8657 46.9734 29.8209 46.2348C29.7762 45.5036 29.2688 45.1903 29.2688 45.1903C29.2688 45.1903 29.6195 43.907 29.4852 43.4146C29.3509 42.9222 28.4854 42.3477 28.2467 42.3328C28.0005 42.3179 25.7772 42.1985 25.7772 42.1985C25.7772 42.1985 25.807 41.6315 25.3146 41.0346C24.8222 40.4377 19.9428 40.5422 19.9428 40.5422C19.9428 40.5422 18.6745 47.1002 19.816 48.1224L19.801 48.1298Z" fill="#EA8073"/>
<path d="M25.7697 42.385L23.1137 42.3029C23.0167 42.3029 22.9346 42.2134 22.9346 42.1164C22.9346 42.0194 23.0167 41.9373 23.1137 41.9373L25.7697 42.0194C25.8667 42.0194 25.9488 42.1089 25.9488 42.2059C25.9488 42.3029 25.8667 42.385 25.7697 42.385Z" fill="black"/>
<path d="M21.1738 38.1398L0.843071 34.2079C0.843071 34.2079 -1.40264 41.1167 2.01442 45.0187C5.43148 48.9207 20.0249 49.5101 20.0249 49.5101L21.1738 38.1323V38.1398Z" fill="#507849"/>
<path d="M17.3912 6.89379C17.3166 6.89379 17.242 6.84156 17.2196 6.76696C17.1898 6.66997 17.242 6.56551 17.339 6.53567L20.0547 5.68514C20.1517 5.65529 20.2562 5.70752 20.286 5.80451C20.3159 5.9015 20.2636 6.00595 20.1666 6.0358L17.4509 6.88633C17.4509 6.88633 17.4136 6.89379 17.3987 6.89379H17.3912Z" fill="white"/>
<path d="M20.1069 112.741C20.1069 112.741 20.0547 112.741 20.0323 112.726C17.9433 111.771 15.3469 112.726 15.3246 112.726C15.2276 112.756 15.1231 112.711 15.0933 112.621C15.056 112.524 15.1082 112.42 15.1977 112.383C15.3096 112.345 17.9508 111.375 20.1815 112.383C20.2711 112.427 20.3158 112.532 20.2711 112.621C20.2412 112.688 20.1741 112.726 20.1069 112.726V112.741Z" fill="#F9BF30"/>
<path d="M20.2711 110.383C20.2711 110.383 20.2189 110.383 20.1965 110.368C18.1 109.413 15.5111 110.368 15.4887 110.368C15.3917 110.398 15.2873 110.353 15.2574 110.264C15.2201 110.167 15.2723 110.062 15.3619 110.025C15.4738 109.98 18.1149 109.018 20.3457 110.025C20.4352 110.07 20.48 110.174 20.4352 110.264C20.4054 110.331 20.3382 110.368 20.2711 110.368V110.383Z" fill="#F9BF30"/>
<path d="M47.6001 109.943C47.5479 109.943 47.5031 109.92 47.4658 109.883C47.3987 109.809 47.4061 109.697 47.4807 109.622C48.6446 108.563 50.8679 108.257 50.9575 108.242C51.0545 108.219 51.1514 108.301 51.1589 108.398C51.1738 108.495 51.0992 108.592 51.0022 108.6C50.9798 108.6 48.8013 108.898 47.7195 109.883C47.6822 109.913 47.6374 109.928 47.6001 109.928V109.943Z" fill="#F9BF30"/>
<path d="M49.2862 112.3C49.2862 112.3 49.2266 112.3 49.1967 112.278C49.1072 112.233 49.0773 112.121 49.1221 112.032C50.3681 109.704 53.2181 110.017 53.2479 110.025C53.3449 110.04 53.4195 110.129 53.4046 110.226C53.3897 110.323 53.3002 110.398 53.2032 110.383C53.1733 110.383 50.577 110.092 49.4504 112.203C49.4205 112.263 49.3534 112.3 49.2862 112.3Z" fill="#F9BF30"/>
<path d="M27.7319 67.5951C27.62 67.5951 27.5454 67.5056 27.5529 67.4012C27.7618 63.2977 27.5529 57.0157 27.5529 56.956C27.5529 56.8739 27.6051 56.7993 27.6797 56.7769L33.3798 54.9938C33.4768 54.9639 33.5812 55.0162 33.611 55.1132C33.6409 55.2102 33.5887 55.3146 33.4917 55.3445L27.9259 57.0828C27.9557 58.0304 28.1124 63.6409 27.9259 67.4235C27.9259 67.5205 27.8438 67.5951 27.7468 67.5951H27.7319Z" fill="#507849"/>
<path d="M37.0878 105.056C36.9908 105.056 36.9087 104.981 36.9087 104.884C36.9087 104.772 36.3641 93.3499 34.1408 83.0987C31.9174 72.855 27.7021 63.0366 27.6648 62.9396C27.6275 62.85 27.6648 62.7381 27.7618 62.7008C27.8588 62.6635 27.9632 62.7008 28.0005 62.7978C28.0453 62.8948 32.2681 72.7431 34.4989 83.0241C36.7297 93.2977 37.2669 104.75 37.2743 104.869C37.2743 104.966 37.1997 105.056 37.1027 105.056H37.0953H37.0878Z" fill="#507849"/>
<path d="M7.14002 36.67C6.11789 36.67 5.17783 36.5133 4.73764 36.0209C4.43174 35.6777 4.58842 35.439 4.67049 35.3569C5.38673 34.5885 10.2288 35.2749 11.0122 35.8717C11.0719 35.9165 11.0943 35.9836 11.0793 36.0582C11.0644 36.1254 11.0122 36.1776 10.945 36.2C10.8182 36.2298 8.87094 36.6775 7.14002 36.6775V36.67ZM6.21488 35.3718C5.57325 35.3718 5.08083 35.439 4.93908 35.5957C4.90924 35.6255 4.93908 35.6852 5.01369 35.7747C5.77469 36.6327 8.7441 36.2597 10.3333 35.9463C9.40812 35.6404 7.5056 35.3718 6.21488 35.3718Z" fill="white"/>
<path d="M23.8672 19.7787C22.002 19.7787 20.965 18.5103 20.9127 18.4432C20.853 18.3611 20.8605 18.2492 20.9426 18.1895C21.0172 18.1298 21.1365 18.1373 21.1962 18.2193C21.2485 18.2865 22.5168 19.8309 24.7849 19.3086C26.4561 18.9207 26.7173 17.6971 26.7247 17.6449C26.7471 17.5479 26.8366 17.4807 26.9411 17.5031C27.0381 17.5255 27.1052 17.615 27.0828 17.7195C27.0679 17.7792 26.7769 19.2266 24.867 19.6667C24.5088 19.7488 24.1731 19.7861 23.8672 19.7861V19.7787Z" fill="white"/>
</g>
<defs>
<clipPath id="clip0_102_3293">
<rect width="75.4738" height="120" fill="white"/>
</clipPath>
</defs>
</svg>
