<svg width="160" height="120" viewBox="0 0 160 120" fill="none" xmlns="http://www.w3.org/2000/svg">
<path d="M0.279785 110.291C0.279785 110.291 1.61816 100.295 8.04538 98.6919C14.4726 97.0888 17.9206 100.552 17.9206 100.552C17.9206 100.552 17.6408 97.5123 21.724 95.6975C25.8072 93.8828 27.7959 96.2041 27.7959 96.2041C27.7959 96.2041 28.5142 86.1096 39.1985 81.9584C49.8828 77.8072 58.7373 83.5463 58.7373 83.5463C58.7373 83.5463 61.7694 77.4367 67.3346 77.966C72.8998 78.4953 73.7921 81.4215 73.7921 81.4215C73.7921 81.4215 76.4764 73.2779 87.4027 71.2136C100.756 68.6881 109.112 81.913 109.913 93.2476C110.715 104.582 101.089 106.843 101.089 106.843L0.279785 110.291Z" fill="#BCB758"/>
<path d="M0.279785 110.291C0.279785 110.291 1.61816 103.743 8.04538 102.14C14.4726 100.537 17.9206 104 17.9206 104C17.9206 104 17.6408 100.96 21.724 99.1455C25.8072 97.3308 27.7959 99.6521 27.7959 99.6521C27.7959 99.6521 28.5142 89.5576 39.1985 85.4064C49.8828 81.2552 58.7373 86.9943 58.7373 86.9943C58.7373 86.9943 61.7694 80.8847 67.3346 81.414C72.8998 81.9433 73.7921 84.8695 73.7921 84.8695C73.7921 84.8695 76.4764 76.7259 87.4027 74.6616C100.756 72.1361 110.253 84.983 111.062 96.3176C111.864 107.652 101.096 110.291 101.096 110.291H0.279785Z" fill="#A09D3F"/>
<path d="M79.758 91.0246C81.9811 92.6352 82.3894 95.8715 82.3894 95.8715C82.3894 95.8715 79.1909 96.4915 76.9679 94.8809C74.7448 93.2703 74.3365 90.034 74.3365 90.034C74.3365 90.034 77.535 89.414 79.758 91.0246Z" fill="#BCB758"/>
<path d="M84.4386 90.4726C84.6579 93.2098 82.4575 95.6143 82.4575 95.6143C82.4575 95.6143 79.9093 93.5803 79.6976 90.8431C79.4783 88.1058 81.6786 85.7013 81.6786 85.7013C81.6786 85.7013 84.2269 87.7353 84.4386 90.4726Z" fill="#BCB758"/>
<path d="M101.921 78.6918C100.371 80.9603 97.1569 81.4593 97.1569 81.4593C97.1569 81.4593 96.4461 78.2835 97.9962 76.0075C99.5463 73.7391 102.76 73.2401 102.76 73.2401C102.76 73.2401 103.471 76.4159 101.921 78.6918Z" fill="#BCB758"/>
<path d="M79.7656 120C123.819 120 159.531 116.042 159.531 111.161C159.531 106.279 123.819 102.321 79.7656 102.321C35.7123 102.321 0 106.279 0 111.161C0 116.042 35.7123 120 79.7656 120Z" fill="#A09D3F"/>
<path d="M114.578 115.554C137.66 115.554 156.37 113.587 156.37 111.161C156.37 108.734 137.66 106.767 114.578 106.767C91.4973 106.767 72.7864 108.734 72.7864 111.161C72.7864 113.587 91.4973 115.554 114.578 115.554Z" fill="#C1645D"/>
<path d="M51.2287 11.1304C51.2287 11.1304 56.9679 11.3497 66.6767 9.42153C76.3856 7.49337 80.242 4.51416 80.242 4.51416L61.6635 7.5463L51.2287 11.1304Z" fill="#C68E1E"/>
<path d="M92.8015 112.809C98.4851 112.809 103.093 112.071 103.093 111.161C103.093 110.25 98.4851 109.512 92.8015 109.512C87.1179 109.512 82.5104 110.25 82.5104 111.161C82.5104 112.071 87.1179 112.809 92.8015 112.809Z" fill="#A85A58"/>
<path d="M81.4296 92.5985L95.7121 85.2867L100.702 95.0327C102.617 98.775 101.136 103.365 97.3936 105.28L96.6667 105.653C92.9244 107.568 88.3348 106.087 86.419 102.345L81.4296 92.5985Z" fill="#ADB29A"/>
<path d="M83.1137 91.7164L97.3962 84.4045L102.386 94.1506C104.301 97.8928 102.82 102.482 99.0777 104.398L98.3508 104.77C94.6085 106.686 90.019 105.205 88.1031 101.462L83.1137 91.7164Z" fill="#C7C9BC"/>
<path d="M52.5066 100.446L53.1267 97.9055H62.7977V103.448L52.5066 100.446Z" fill="#EA8073"/>
<path d="M27.1758 100.446L28.9528 96.8998L38.9943 97.9055L37.4669 103.448L27.1758 100.446Z" fill="#EA8073"/>
<path d="M73.4972 48.5444C73.4972 48.5444 75.38 51.3875 75.8639 53.2023C76.3478 55.017 75.1758 56.189 75.1758 56.189C75.1758 56.189 75.3648 54.9716 75.138 57.051C74.9111 59.1304 70.3818 61.051 69.8374 60.6881C69.293 60.3176 70.1021 59.2817 70.1021 59.2817C70.1021 59.2817 68.3327 59.7429 68.2798 58.8053C68.2268 57.8677 69.2779 56.741 69.2779 56.741C69.2779 56.741 67.8714 58.2004 67.3195 56.7713C66.7675 55.3421 67.8488 53.966 67.8488 53.966C67.8488 53.966 63.811 51.8639 67.0094 47.4329C70.2079 43.0019 73.482 48.552 73.482 48.552L73.4972 48.5444Z" fill="#EA8073"/>
<g style="mix-blend-mode:multiply" opacity="0.38">
<path d="M55.5992 116.302C77.5236 116.302 95.2968 114.698 95.2968 112.718C95.2968 110.739 77.5236 109.134 55.5992 109.134C33.6749 109.134 15.9017 110.739 15.9017 112.718C15.9017 114.698 33.6749 116.302 55.5992 116.302Z" fill="#969635"/>
</g>
<path d="M69.3762 20.983C69.3762 20.983 72.4159 30.1096 73.4972 38.6767C74.5784 47.2438 74.3592 49.1342 74.3592 49.1342L64.8393 52.7864L62.2911 44.5293L69.3762 20.9754V20.983Z" fill="#FFA63B"/>
<path d="M46.6994 34.1777C46.0945 33.6711 53.7089 16.9225 56.1739 16.3856C59.3951 15.6824 68.0983 18.034 69.7769 21.656C71.4631 25.2779 62.5709 47.7883 62.5709 47.7883L45.4669 42.5784L46.6919 34.1777H46.6994Z" fill="#FFA63B"/>
<path d="M45.4745 38.0416C45.4745 38.0416 41.6786 41.9508 39.5388 50.0113C37.3989 58.0794 37.2703 69.6711 36.8923 70.8053C36.5142 71.9395 24.7259 95.5387 24.9754 96.0453C25.225 96.552 40.431 101.8 41.1872 101.8C41.9433 101.8 51.0473 81.0132 51.7202 78.4953L52.3932 75.9773L50.1248 99.5463C50.1248 99.5463 66.6011 100.053 66.8053 99.5463C67.0095 99.0397 70.9338 78.6238 70.5482 72.7032C70.1626 66.7826 63.879 46.7977 63.879 46.7977L45.4745 38.0491V38.0416Z" fill="#507849"/>
<path d="M27.3648 98.9263C27.3648 98.9263 37.3459 101.422 38.0038 102.049C38.6616 102.677 44.8091 110.473 44.8091 110.473C44.8091 110.473 47.6748 112.25 48.4386 114.299C49.1947 116.348 48.0076 118.359 47.5463 118.51C47.0851 118.662 23.2363 112.771 22.7902 112.174C22.344 111.577 25.0132 103.493 27.3724 98.9263H27.3648Z" fill="#F9BF30"/>
<path d="M52.5066 100.446C52.5066 100.446 62.7902 100.333 63.6068 100.764C64.4235 101.195 72.5822 107.13 72.5822 107.13C72.5822 107.13 75.8488 108.113 77.172 109.883C78.4953 111.652 77.9433 113.883 77.5501 114.147C77.1569 114.412 52.5898 114.752 51.9849 114.291C51.38 113.83 51.5766 105.414 52.5066 100.446Z" fill="#F9BF30"/>
<path d="M62.1399 12.862L60.8771 16.983C60.8771 16.983 61.2552 18.397 63.6068 19.327C65.3611 20.0227 66.1096 19.811 66.1096 19.811L66.4953 17.6484L66.8734 15.5387L62.8129 13.2476L62.1323 12.862H62.1399Z" fill="#EA8073"/>
<path d="M62.8204 13.2401C62.7977 13.3535 62.7977 13.5047 62.8204 13.6711C63.1153 16.0151 65.4972 17.2249 66.5028 17.6408L66.8809 15.5312L62.8204 13.2401Z" fill="black"/>
<path d="M70.6692 6.41966C70.6692 6.41966 71.2514 12.2495 69.5199 14.8582C67.7883 17.4669 65.3233 16.1739 63.932 15.1153C62.5482 14.0567 62.1323 12.862 62.1323 12.862C62.1323 12.862 60.5142 12.8847 59.9698 11.2136C59.4329 9.54253 60.5369 8.17391 61.4896 8.08318C62.4424 7.99244 63.2363 8.91493 63.2363 8.91493L62.9414 7.1758C62.9414 7.1758 68.6503 0.68809 70.6692 6.41966Z" fill="#EA8073"/>
<path d="M68.3932 12.862C68.3554 12.862 68.3176 12.8469 68.2798 12.8242C68.1966 12.7637 68.1739 12.6427 68.2344 12.5595C68.8242 11.7278 68.4612 10.4877 68.4612 10.4726C68.431 10.3743 68.4915 10.2684 68.5898 10.2382C68.6956 10.2079 68.7939 10.2684 68.8242 10.3667C68.8393 10.4272 69.2476 11.7958 68.5444 12.7788C68.5066 12.8317 68.4537 12.862 68.3932 12.862Z" fill="black"/>
<path d="M62.2911 11.259C62.2231 11.259 62.155 11.2212 62.1172 11.1531L61.2174 9.23251C61.172 9.14177 61.2174 9.02835 61.3081 8.98298C61.3989 8.93761 61.5123 8.98298 61.5577 9.07371L62.4575 11.0019C62.5028 11.0926 62.4575 11.206 62.3667 11.2514C62.344 11.2665 62.3138 11.2665 62.2835 11.2665L62.2911 11.259Z" fill="black"/>
<path d="M61.9584 10.5557L60.9225 10.3818C60.8166 10.3667 60.7486 10.2684 60.7713 10.1625C60.7864 10.0567 60.8847 9.98864 60.9906 10.0113L61.9962 10.1852C62.1021 10.2004 62.1701 10.2987 62.1475 10.4045C62.1323 10.4953 62.0492 10.5633 61.9584 10.5633V10.5557Z" fill="black"/>
<path d="M66.5709 13.9433C66.3138 13.9433 66.0416 13.8752 65.8072 13.6408C65.2552 13.0888 65.2779 12.2949 65.2779 12.2646C65.2779 12.1966 65.3233 12.1285 65.3838 12.0983C65.4443 12.068 65.5199 12.0756 65.5804 12.1134L67.3573 13.4367C67.4102 13.4745 67.4405 13.5425 67.4329 13.603C67.4329 13.6711 67.3875 13.724 67.3346 13.7542C67.3119 13.7694 66.9717 13.9357 66.5785 13.9357L66.5709 13.9433ZM65.7089 12.6881C65.7618 12.9074 65.8677 13.172 66.0794 13.3762C66.2987 13.5954 66.6163 13.5879 66.8507 13.535L65.7165 12.6881H65.7089Z" fill="black"/>
<path d="M66.7146 10.2004C66.5785 10.1777 66.5104 10.0794 66.5255 9.97353L66.7146 8.98298C66.7373 8.87712 66.828 8.80907 66.9339 8.83176C67.0397 8.85444 67.1002 8.95274 67.0851 9.05104L66.8961 10.0416C66.8809 10.1323 66.7978 10.1928 66.707 10.1928L66.7146 10.2004Z" fill="black"/>
<path d="M69.603 10.9036C69.4669 10.8809 69.3989 10.7826 69.414 10.6843L69.5879 9.69374C69.603 9.58788 69.6938 9.51983 69.8072 9.54251C69.9131 9.55763 69.9811 9.65593 69.9584 9.76179L69.7845 10.7523C69.7694 10.8431 69.6862 10.9111 69.5955 10.9111L69.603 10.9036Z" fill="black"/>
<path d="M66.4272 8.08317C66.3819 8.08317 66.3289 8.06805 66.2911 8.03024C66.2155 7.95463 66.2231 7.83365 66.2911 7.76559C66.8658 7.19849 67.6749 7.65973 67.7051 7.68242C67.7959 7.73535 67.8261 7.84877 67.7732 7.93951C67.7202 8.03024 67.6068 8.06049 67.5161 8.00756C67.4934 7.99244 66.9263 7.67486 66.5558 8.0378C66.518 8.07561 66.4726 8.09073 66.4272 8.09073V8.08317Z" fill="black"/>
<path d="M70.5482 8.79394C70.4802 8.79394 70.4197 8.76369 70.3819 8.7032C70.3214 8.59734 70.1021 8.31 69.8526 8.26464C69.7316 8.24195 69.6106 8.2722 69.482 8.3705C69.3989 8.43099 69.2779 8.41586 69.2174 8.33269C69.1569 8.24951 69.172 8.12853 69.2552 8.06804C69.4669 7.90169 69.6938 7.84876 69.9282 7.89412C70.397 7.98486 70.6919 8.49148 70.707 8.51416C70.7599 8.6049 70.7297 8.71832 70.6389 8.77125C70.6087 8.78637 70.5785 8.79394 70.5406 8.79394H70.5482Z" fill="black"/>
<path d="M63.2438 8.91493C63.2438 8.91493 62.7826 9.78449 64.1512 9.21739C65.5198 8.64272 65.8979 7.35727 66.896 5.95841C67.8941 4.55954 69.3913 3.87145 70.034 5.14933L70.6692 6.42722L69.3837 2.49527C69.3837 2.49527 67.138 0.173906 63.7202 1.8223C59.8109 3.7051 60.3932 5.67863 60.3932 5.67863C60.3932 5.67863 59.7656 6.98676 59.7958 7.8412C59.8185 8.69565 60.2041 8.80907 60.2041 8.80907C60.2041 8.80907 61.3989 7.47826 63.2438 8.92249V8.91493Z" fill="black"/>
<path d="M60.4613 16.2646H57.7316C57.7316 16.2646 54.4121 26.5331 50.3743 28.6352C46.3441 30.7372 45.4745 38.0416 45.4745 38.0416L57.7316 46.3138L63.2968 51.7127C63.2968 51.7127 67.879 35.0699 68.9301 29.0132C69.9811 22.949 69.7694 21.656 69.7694 21.656C69.7694 21.656 68.9301 20.3403 68.2495 19.8412L67.569 19.3346C67.569 19.3346 67.3195 23.6749 66.5255 27.1229C65.7391 30.5709 65.2854 32.0302 65.2854 32.0302L56.242 28.7183C56.242 28.7183 58.9792 24.983 60.4461 16.2646H60.4613Z" fill="#507849"/>
<path d="M63.879 43.7278C63.879 43.7278 63.8563 43.7278 63.8412 43.7278L53.8223 41.5954C53.7694 41.5803 53.724 41.5501 53.6938 41.5047C53.6635 41.4593 53.6635 41.3988 53.6786 41.3459L55.9924 34.8809C56.0227 34.7902 56.1134 34.7372 56.2117 34.7599L65.7769 36.7108C65.8299 36.7183 65.8752 36.7561 65.8979 36.7939C65.9282 36.8393 65.9357 36.8922 65.9206 36.9452L64.0605 43.5917C64.0378 43.6748 63.9622 43.7278 63.879 43.7278ZM54.1096 41.2627L63.7429 43.3119L65.5047 37.0283L56.2949 35.1531L54.1096 41.2627Z" fill="#F9BF30"/>
<path d="M93.051 94.1928C92.7788 94.1928 92.5218 94.0492 92.3856 93.7921L59.1758 31.5841C58.9792 31.2136 59.1153 30.7599 59.4858 30.5633C59.8563 30.3667 60.31 30.5028 60.5066 30.8733L93.7165 93.0813C93.9131 93.4518 93.7769 93.9055 93.4064 94.1021C93.293 94.1626 93.172 94.1928 93.051 94.1928Z" fill="#C1645D"/>
<path d="M53.1267 28.3024C53.1267 28.3024 58.1097 25.051 58.8355 24.8469C59.5614 24.6427 60.6881 25.1342 60.6881 25.1342L61.5501 25.9433C61.5501 25.9433 64.7183 25.8752 65.4064 26.9036C66.0945 27.9319 64.4915 28.6276 64.4915 28.6276C64.4915 28.6276 66.2684 28.5444 66.5028 29.6559C66.7448 30.7675 65.2628 31.4253 65.2628 31.4253C65.2628 31.4253 66.7524 32.1739 65.7089 33.0435C62.8129 35.4556 54.4272 35.1455 54.4272 35.1455L53.1115 28.31L53.1267 28.3024Z" fill="#EA8073"/>
<path d="M56.5596 16.2646C56.5596 16.2646 35.6597 19.4026 32.2268 28.62C28.7864 37.8299 41.7316 39.758 48.9452 38.6541C56.1512 37.5577 57.3913 36.5898 57.3913 36.5898L56.2873 25.3157L51.4329 26.1399L56.5671 16.2646H56.5596Z" fill="#FFA63B"/>
<path d="M72.5823 107.319L67.2288 106.904C67.1229 106.896 67.0473 106.805 67.0548 106.699C67.0548 106.594 67.1305 106.51 67.259 106.526L72.5974 106.941C72.7032 106.949 72.7788 107.04 72.7713 107.146C72.7713 107.244 72.6805 107.319 72.5823 107.319Z" fill="#507849"/>
<path d="M44.8015 110.662C44.8015 110.662 44.7637 110.662 44.741 110.654L40.4461 109.172C40.3478 109.142 40.2949 109.028 40.3327 108.93C40.3705 108.832 40.4764 108.779 40.5747 108.817L44.8696 110.299C44.9679 110.329 45.0208 110.442 44.983 110.541C44.9527 110.616 44.8847 110.669 44.8015 110.669V110.662Z" fill="#507849"/>
<path d="M69.9811 57.8677C69.9811 57.8677 66.4197 57.7769 67.3648 56.0605C68.3025 54.344 74.6163 53.0057 75.4631 54.8507C76.31 56.6957 69.9811 57.8752 69.9811 57.8752V57.8677Z" fill="#EA8073"/>
<path d="M70.7675 59.7656C70.7675 59.7656 67.2061 59.6749 68.1512 57.9584C69.0889 56.242 75.4027 54.9036 76.2495 56.7486C77.0964 58.5936 70.7675 59.7732 70.7675 59.7732V59.7656Z" fill="#EA8073"/>
<path d="M72.0303 62.0189C72.0303 62.0189 68.9074 62.4726 69.4745 60.8317C70.034 59.1909 75.3346 57.0737 76.3554 58.5558C77.3762 60.0378 72.0303 62.0189 72.0303 62.0189Z" fill="#EA8073"/>
<path d="M65.5501 20.0302C62.6389 20.0302 60.8015 17.2023 60.7183 17.0813C60.6654 16.9905 60.6881 16.8771 60.7788 16.8166C60.8696 16.7561 60.983 16.7864 61.0435 16.8771C61.0662 16.9074 63.0851 20.0151 66.0945 19.6219C66.1928 19.6068 66.2911 19.6824 66.3062 19.7883C66.3214 19.8941 66.2457 19.9849 66.1399 20C65.9357 20.0227 65.7391 20.0378 65.5501 20.0378V20.0302Z" fill="white"/>
<path d="M41.9206 27.7883C41.8526 27.7883 41.7921 27.758 41.7543 27.6975C41.7013 27.6068 41.7316 27.4934 41.8223 27.4404C44.2193 26.0567 51.1304 25.9584 51.4253 25.9584C51.5312 25.9584 51.6144 26.0416 51.6144 26.1474C51.6144 26.2533 51.5312 26.3365 51.4253 26.3365C51.3573 26.3365 44.3251 26.4348 42.0113 27.7656C41.9811 27.7807 41.9509 27.7883 41.9206 27.7883Z" fill="white"/>
<path d="M44.4537 26.6389C43.4858 26.6389 42.6163 26.5028 42.344 26.0718C42.1701 25.7996 42.2231 25.4593 42.5028 25.0661C43.3573 23.8487 47.2287 25.7467 47.6673 25.9735C47.7429 26.0113 47.7807 26.0869 47.7656 26.1701C47.7505 26.2533 47.69 26.3138 47.6144 26.3289C47.1758 26.4045 45.7316 26.6389 44.4537 26.6389ZM43.5312 25.0359C43.1909 25.0359 42.9414 25.1115 42.8129 25.2854C42.6314 25.5425 42.586 25.7391 42.6692 25.8676C43.017 26.4196 45.2854 26.2911 46.9641 26.0491C45.845 25.5349 44.4159 25.0283 43.5388 25.0283L43.5312 25.0359Z" fill="white"/>
<path d="M44.0756 46.6767C43.9773 46.6767 43.8941 46.6011 43.8866 46.5028C43.879 46.397 43.9546 46.3062 44.0605 46.2987C44.0907 46.2987 47.3951 45.966 48.431 43.4631C48.4688 43.3648 48.5822 43.3195 48.6805 43.3573C48.7788 43.3951 48.8242 43.5085 48.7864 43.6068C47.6673 46.3213 44.242 46.6616 44.0983 46.6767H44.0832H44.0756Z" fill="#F9BF30"/>
<path d="M52.3932 76.1663C52.3932 76.1663 52.3403 76.1663 52.3176 76.1512C52.2193 76.1058 52.1815 75.9924 52.2268 75.9017C52.242 75.8714 53.6181 72.8242 54.4499 69.5879C55.448 65.7089 55.3573 55.9622 55.3573 55.8639C55.3573 55.7807 55.4178 55.6975 55.5009 55.6824L62.7599 53.7845C62.8658 53.7542 62.9641 53.8223 62.9943 53.9206C63.017 54.0189 62.9641 54.1247 62.8582 54.155L55.7429 56.0151C55.7505 57.3005 55.7732 65.9811 54.8204 69.6937C53.9735 72.9678 52.5898 76.0378 52.5747 76.0756C52.5444 76.1436 52.4764 76.189 52.4008 76.189L52.3932 76.1663Z" fill="#F9BF30"/>
<path d="M50.586 94.7977L67.9924 95.259L67.6144 99.9773L50.1248 99.5463L50.586 94.7977Z" fill="#B25212"/>
<path d="M26.155 91.4631L23.7958 96.9225L41.9206 102.314L44.0756 97.3913L26.155 91.4631Z" fill="#B25212"/>
<path d="M57.5955 26.4348C57.4972 26.4348 57.4064 26.3516 57.4064 26.2533C57.4064 26.1474 57.4821 26.0643 57.5879 26.0567L60.8696 25.9584C60.9754 25.9508 61.0586 26.034 61.0662 26.1399C61.0662 26.2457 60.9906 26.3289 60.8847 26.3365L57.603 26.4348H57.5955Z" fill="black"/>
<path d="M69.1947 57.3988C69.104 57.3988 69.0284 57.3383 69.0057 57.2476C68.983 57.1418 69.051 57.0435 69.1569 57.0283L74.3138 56.0075C74.4197 55.9849 74.518 56.0529 74.5331 56.1588C74.5558 56.2646 74.4877 56.3629 74.3819 56.378L69.225 57.3988C69.225 57.3988 69.2023 57.3988 69.1871 57.3988H69.1947Z" fill="black"/>
<path d="M69.9962 60.0378C69.913 60.0378 69.8374 59.9849 69.8147 59.9017C69.7845 59.8034 69.845 59.6975 69.9433 59.6673L75.2741 58.1928C75.38 58.1625 75.4783 58.223 75.5085 58.3213C75.5387 58.4196 75.4783 58.5255 75.38 58.5557L70.0491 60.0302C70.0491 60.0302 70.0189 60.0302 69.9962 60.0302V60.0378Z" fill="black"/>
<path d="M72.8318 54.1474C72.7486 54.1474 72.673 54.0945 72.6503 54.0038C72.1361 52.0227 72.7637 51.0775 72.794 51.0397C72.8544 50.9565 72.9679 50.9338 73.0586 50.9943C73.1418 51.0548 73.1645 51.1682 73.104 51.259C73.0964 51.2741 72.552 52.121 73.0132 53.913C73.0359 54.0113 72.9754 54.1172 72.8771 54.1474C72.862 54.1474 72.8469 54.1474 72.8318 54.1474Z" fill="black"/>
<path d="M88.1437 98.0945C88.0756 98.0945 88.0151 98.0567 87.9773 97.9962L84.9074 92.4083C84.8544 92.3176 84.8922 92.2041 84.983 92.1512C85.0737 92.0983 85.1871 92.1361 85.2401 92.2268L88.31 97.8147C88.3629 97.9055 88.3251 98.0189 88.2344 98.0718C88.2042 98.0869 88.1739 98.0945 88.1437 98.0945Z" fill="white"/>
<path d="M51.2287 11.1304C51.2287 11.1304 81.0208 4.5671 80.242 4.51417C79.4707 4.46124 71.1077 4.65783 71.1077 4.65783C71.1077 4.65783 68.5066 0.0831642 67.7353 -1.15668e-05C66.9716 -0.0831874 60.5217 1.67107 59.9244 2.47258C59.327 3.27409 59.6219 6.94895 59.6219 6.94895L51.2212 11.1304H51.2287Z" fill="#FFA63B"/>
<path d="M59.6295 7.13799C59.5463 7.13799 59.4707 7.08507 59.448 7.00189C59.4178 6.90359 59.4707 6.79773 59.569 6.76748L62.3818 5.89036C62.4801 5.86011 62.586 5.91304 62.6162 6.01134C62.6465 6.10964 62.5936 6.2155 62.4953 6.24575L59.6824 7.12287C59.6824 7.12287 59.6446 7.13043 59.6295 7.13043V7.13799Z" fill="white"/>
<path d="M117.384 112.809C123.067 112.809 127.675 112.071 127.675 111.161C127.675 110.25 123.067 109.512 117.384 109.512C111.7 109.512 107.093 110.25 107.093 111.161C107.093 112.071 111.7 112.809 117.384 112.809Z" fill="#A85A58"/>
<path d="M117.384 111.35C117.278 111.35 117.195 111.267 117.195 111.168L116.423 78.0038C116.423 77.8979 116.507 77.8148 116.605 77.8072C116.711 77.8072 116.794 77.8904 116.802 77.9887L117.573 111.153C117.573 111.259 117.49 111.342 117.391 111.35H117.384Z" fill="#B7AA32"/>
<path d="M117.187 102.881C117.059 102.866 116.983 102.767 116.998 102.669C117.013 102.563 118.488 91.8639 125.195 86.9187C125.278 86.8582 125.399 86.8733 125.459 86.9565C125.52 87.0397 125.505 87.1607 125.422 87.2211C118.843 92.0756 117.391 102.616 117.376 102.722C117.361 102.82 117.285 102.888 117.187 102.888V102.881Z" fill="#B7AA32"/>
<path d="M116.877 89.6862C116.771 89.6862 116.688 89.603 116.688 89.5047C116.544 83.3422 109.701 81.4669 109.633 81.4518C109.535 81.4215 109.474 81.3233 109.497 81.2174C109.527 81.1191 109.626 81.051 109.732 81.0813C109.8 81.0964 116.922 83.0397 117.074 89.4896C117.074 89.5955 116.991 89.6786 116.892 89.6862H116.877Z" fill="#B7AA32"/>
<path d="M117.384 111.38C117.384 111.38 114.518 110.132 114.019 108.726C113.512 107.319 112.93 105.384 112.93 105.384C112.93 105.384 115.871 106.457 116.628 107.985C117.384 109.512 117.391 111.38 117.391 111.38H117.384Z" fill="#B7AA32"/>
<path d="M117.384 109.316C117.384 109.316 120.25 108.068 120.749 106.662C121.255 105.255 121.837 103.319 121.837 103.319C121.837 103.319 118.896 104.393 118.14 105.921C117.384 107.448 117.376 109.316 117.376 109.316H117.384Z" fill="#B7AA32"/>
<path d="M116.877 81.535C116.877 81.535 115.75 78.6238 114.367 78.0567C112.983 77.4896 111.07 76.8242 111.07 76.8242C111.07 76.8242 112.023 79.8034 113.52 80.6276C115.017 81.4518 116.877 81.535 116.877 81.535Z" fill="#B7AA32"/>
<path d="M116.612 81.535C116.612 81.535 117.739 78.6238 119.123 78.0567C120.514 77.4972 122.42 76.8242 122.42 76.8242C122.42 76.8242 121.467 79.8034 119.97 80.6276C118.473 81.4518 116.612 81.535 116.612 81.535Z" fill="#B7AA32"/>
<path d="M116.665 81.0813C116.665 81.0813 118.034 78.276 117.497 76.8771C116.968 75.4783 116.159 73.6257 116.159 73.6257C116.159 73.6257 114.624 76.3554 115.04 78.0113C115.456 79.6673 116.665 81.0888 116.665 81.0888V81.0813Z" fill="#B7AA32"/>
<path d="M116.877 90.2911C116.877 90.2911 119.743 89.0435 120.242 87.637C120.749 86.2306 121.331 84.2949 121.331 84.2949C121.331 84.2949 118.389 85.3686 117.633 86.896C116.877 88.4234 116.87 90.2911 116.87 90.2911H116.877Z" fill="#B7AA32"/>
<path d="M116.991 97.4593C116.991 97.4593 117.112 94.3365 116.061 93.2703C115.009 92.2041 113.52 90.8355 113.52 90.8355C113.52 90.8355 113.217 93.9508 114.261 95.2968C115.312 96.6427 116.991 97.4593 116.991 97.4593Z" fill="#B7AA32"/>
<path d="M119.312 95.3043C119.312 95.3043 122.352 96.0075 123.599 95.1758C124.847 94.344 126.465 93.1418 126.465 93.1418C126.465 93.1418 123.463 92.2571 121.943 93.0359C120.423 93.8147 119.312 95.3043 119.312 95.3043Z" fill="#B7AA32"/>
<path d="M123.289 88.8696C123.289 88.8696 126.268 87.9395 126.926 86.5936C127.577 85.2476 128.378 83.3875 128.378 83.3875C128.378 83.3875 125.338 84.1361 124.423 85.5728C123.501 87.0094 123.297 88.862 123.297 88.862L123.289 88.8696Z" fill="#B7AA32"/>
<path d="M106.11 79.3346C106.11 79.3346 107.781 81.9735 109.255 82.2533C110.73 82.5331 112.726 82.8128 112.726 82.8128C112.726 82.8128 111.206 80.0756 109.58 79.5614C107.955 79.0473 106.11 79.3346 106.11 79.3346Z" fill="#B7AA32"/>
<path d="M141.83 112.809C147.513 112.809 152.121 112.071 152.121 111.161C152.121 110.25 147.513 109.512 141.83 109.512C136.146 109.512 131.539 110.25 131.539 111.161C131.539 112.071 136.146 112.809 141.83 112.809Z" fill="#A85A58"/>
<path d="M141.83 111.35C141.724 111.35 141.641 111.267 141.641 111.168L140.87 78.0038C140.87 77.8979 140.953 77.8148 141.051 77.8072C141.157 77.8072 141.24 77.8904 141.248 77.9887L142.019 111.153C142.019 111.259 141.936 111.342 141.837 111.35H141.83Z" fill="#B7AA32"/>
<path d="M141.323 89.6862C141.217 89.6862 141.134 89.603 141.134 89.5047C140.991 83.3422 134.147 81.4669 134.079 81.4518C133.981 81.4215 133.921 81.3233 133.943 81.2174C133.974 81.1191 134.072 81.051 134.178 81.0813C134.246 81.0964 141.369 83.0397 141.52 89.4896C141.52 89.5955 141.437 89.6786 141.338 89.6862H141.323Z" fill="#B7AA32"/>
<path d="M141.83 111.38C141.83 111.38 138.964 110.132 138.465 108.726C137.958 107.319 137.376 105.384 137.376 105.384C137.376 105.384 140.318 106.457 141.074 107.985C141.83 109.512 141.837 111.38 141.837 111.38H141.83Z" fill="#B7AA32"/>
<path d="M141.83 109.316C141.83 109.316 144.696 108.068 145.195 106.662C145.701 105.255 146.284 103.319 146.284 103.319C146.284 103.319 143.342 104.393 142.586 105.921C141.83 107.448 141.822 109.316 141.822 109.316H141.83Z" fill="#B7AA32"/>
<path d="M141.059 81.535C141.059 81.535 142.185 78.6238 143.569 78.0567C144.96 77.4972 146.866 76.8242 146.866 76.8242C146.866 76.8242 145.913 79.8034 144.416 80.6276C142.919 81.4518 141.059 81.535 141.059 81.535Z" fill="#B7AA32"/>
<path d="M141.112 81.0813C141.112 81.0813 142.48 78.276 141.943 76.8771C141.406 75.4783 140.605 73.6257 140.605 73.6257C140.605 73.6257 139.07 76.3554 139.486 78.0113C139.902 79.6673 141.112 81.0888 141.112 81.0888V81.0813Z" fill="#B7AA32"/>
<path d="M141.323 90.2911C141.323 90.2911 144.189 89.0435 144.688 87.637C145.195 86.2306 145.777 84.2949 145.777 84.2949C145.777 84.2949 142.836 85.3686 142.079 86.896C141.323 88.4234 141.316 90.2911 141.316 90.2911H141.323Z" fill="#B7AA32"/>
<path d="M141.437 97.4593C141.437 97.4593 141.558 94.3365 140.507 93.2703C139.456 92.2041 137.966 90.8355 137.966 90.8355C137.966 90.8355 137.664 93.9508 138.707 95.2968C139.758 96.6427 141.437 97.4593 141.437 97.4593Z" fill="#B7AA32"/>
<path d="M130.556 79.3346C130.556 79.3346 132.227 81.9735 133.701 82.2533C135.176 82.5331 137.172 82.8128 137.172 82.8128C137.172 82.8128 135.652 80.0756 134.026 79.5614C132.401 79.0473 130.556 79.3346 130.556 79.3346Z" fill="#B7AA32"/>
<path d="M12.8469 106.919C14.2911 108.809 13.8223 111.584 13.8223 111.584C13.8223 111.584 11.017 111.297 9.58034 109.414C8.14367 107.531 8.60492 104.749 8.60492 104.749C8.60492 104.749 11.4102 105.036 12.8469 106.919Z" fill="#BCB758"/>
</svg>
